<!-- Generator: Adobe Illustrator 17.1.0, SVG Export Plug-In . SVG Version: 6.00 Build 0)  -->
<!DOCTYPE svg PUBLIC "-//W3C//DTD SVG 1.1//EN" "http://www.w3.org/Graphics/SVG/1.1/DTD/svg11.dtd">
<svg xmlns="http://www.w3.org/2000/svg" xmlns:xlink="http://www.w3.org/1999/xlink" version="1.1" id="Layer_1" x="0px" y="0px" viewBox="0 0 35 58" enable-background="new 0 0 35 58" xml:space="preserve">
<g>
	<path fill="#FFFFFF" d="M12.602,13.074l0.073-0.247c1.254-4.371,3.237-7.314,5.894-8.75c1.688-0.912,3.596-1.182,5.675-0.8   c0.459,0.084,0.93,0.201,1.401,0.347c3.213,0.999,5.129,2.536,6.028,4.839l0.088,0.381l2.318,0.011l-0.077-0.401   c-1.037-3.309-3.501-5.465-7.75-6.786c-0.739-0.23-1.46-0.442-2.156-0.538c-1.558-0.235-2.954-0.139-4.208,0.197   C14.454,2.723,11.88,8.5,10.645,12.479L1.01,43.527c-0.078,0.249-0.747,2.512-0.298,5.251c0.607,3.705,3.123,6.425,7.084,7.656   c0.51,0.158,1.021,0.285,1.516,0.376c3.398,0.624,6.392-0.298,8.657-2.667c1.915-1.998,2.647-4.248,2.724-4.497l8.575-27.384   c0.147-0.472,0.123-0.908-0.069-1.226c-0.14-0.233-0.358-0.387-0.615-0.434c-0.431-0.079-0.991,0.156-1.269,1.053l-1.781,5.687   c-0.067,0.122-0.136,0.241-0.187,0.406L18.74,49.042c-1.032,3.232-4.024,6.68-9.059,5.755c-0.421-0.077-0.85-0.184-1.278-0.317   c-3.227-1.004-5.189-3.091-5.673-6.037c-0.374-2.284,0.227-4.283,0.234-4.305L12.602,13.074z"/>
	<path opacity="0.4" fill="#062942" d="M12.602,13.074l0.073-0.247c1.254-4.371,3.237-7.314,5.894-8.75   c1.688-0.912,3.596-1.182,5.675-0.8c0.459,0.084,0.93,0.201,1.401,0.347c3.213,0.999,5.129,2.536,6.028,4.839l0.088,0.381   l2.318,0.011l-0.077-0.401c-1.037-3.309-3.501-5.465-7.75-6.786c-0.739-0.23-1.46-0.442-2.156-0.538   c-1.558-0.235-2.954-0.139-4.208,0.197C14.454,2.723,11.88,8.5,10.645,12.479L1.01,43.527c-0.078,0.249-0.747,2.512-0.298,5.251   c0.607,3.705,3.123,6.425,7.084,7.656c0.51,0.158,1.021,0.285,1.516,0.376c3.398,0.624,6.392-0.298,8.657-2.667   c1.915-1.998,2.647-4.248,2.724-4.497l8.575-27.384c0.147-0.472,0.123-0.908-0.069-1.226c-0.14-0.233-0.358-0.387-0.615-0.434   c-0.431-0.079-0.991,0.156-1.269,1.053l-1.781,5.687c-0.067,0.122-0.136,0.241-0.187,0.406L18.74,49.042   c-1.032,3.232-4.024,6.68-9.059,5.755c-0.421-0.077-0.85-0.184-1.278-0.317c-3.227-1.004-5.189-3.091-5.673-6.037   c-0.374-2.284,0.227-4.283,0.234-4.305L12.602,13.074z"/>
</g>
</svg>