<?xml version="1.0" encoding="utf-8"?>
<svg version="1.1" id="Layer_1" xmlns="http://www.w3.org/2000/svg" x="0px" y="0px"
     viewBox="0 0 32 32" xml:space="preserve">
<g>
	<circle cx="16" cy="16" r="16" fill="#59b725" />
	<g transform="translate(7,10) scale(0.8, 0.7)">
		<path d="M7.66674 14.69L2.65452 9.67779C2.38444 9.40771 2.01813 9.25598 1.63619 9.25598C1.25424 9.25598 0.887931 9.40771 0.617852 9.67779C0.347774 9.94787 0.196045 10.3142 0.196045 10.6961C0.196045 10.8852 0.233296 11.0725 0.305669 11.2472C0.378043 11.422 0.484123 11.5807 0.617852 11.7145L6.65563 17.7522C7.21896 18.3156 8.12896 18.3156 8.6923 17.7522L23.9745 2.47001C24.2446 2.19993 24.3963 1.83363 24.3963 1.45168C24.3963 1.06973 24.2446 0.703422 23.9745 0.433343C23.7044 0.163265 23.3381 0.0115356 22.9562 0.0115356C22.5742 0.0115356 22.2079 0.163265 21.9379 0.433343L7.66674 14.69Z"
				  fill="white"/>
	</g>
</g>
</svg>
